<?xml version="1.0" encoding="iso-8859-1"?>
<!-- Uploaded to: SVG Repo, www.svgrepo.com, Generator: SVG Repo Mixer Tools -->
<svg height="800px" width="800px" version="1.1" id="Layer_1" xmlns="http://www.w3.org/2000/svg" xmlns:xlink="http://www.w3.org/1999/xlink" 
	 viewBox="0 0 512 512" xml:space="preserve">
<path style="fill:#8C6D50;" d="M116.87,372.87H16.696C7.479,372.87,0,365.397,0,356.174s7.479-16.696,16.696-16.696H116.87
	c9.217,0,16.696,7.473,16.696,16.696S126.087,372.87,116.87,372.87z"/>
<path style="fill:#D08C3B;" d="M461.913,72.348H150.261c-27.662,0-50.087,22.424-50.087,50.087V372.87h361.739
	c27.662,0,50.087-22.424,50.087-50.087V122.435C512,94.772,489.576,72.348,461.913,72.348z"/>
<path style="fill:#C5762B;" d="M461.913,72.348H306.087V372.87h155.826c27.619,0,50.087-22.468,50.087-50.087V122.435
	C512,94.816,489.532,72.348,461.913,72.348z"/>
<path style="fill:#6E6057;" d="M378.435,439.652c-36.826,0-66.783-29.956-66.783-66.783s29.956-66.783,66.783-66.783
	s66.783,29.956,66.783,66.783S415.261,439.652,378.435,439.652z"/>
<path style="fill:#615349;" d="M445.217,372.87c0-36.826-29.956-66.783-66.783-66.783v133.565
	C415.261,439.652,445.217,409.696,445.217,372.87z"/>
<path style="fill:#DBDFE3;" d="M378.435,339.478c-18.413,0-33.391,14.978-33.391,33.391c0,18.413,14.978,33.391,33.391,33.391
	c18.413,0,33.391-14.978,33.391-33.391C411.826,354.456,396.848,339.478,378.435,339.478z"/>
<path style="fill:#CAD1D7;" d="M411.826,372.87c0-18.413-14.978-33.391-33.391-33.391v66.783
	C396.848,406.261,411.826,391.283,411.826,372.87z"/>
<path style="fill:#E2E7EC;" d="M300.522,372.87V155.826c0-9.223-7.479-16.696-16.696-16.696H183.652
	c-9.217,0-16.696,7.473-16.696,16.696V372.87H300.522z"/>
<path style="fill:#615349;" d="M512,139.13H361.739c-9.217,0-16.696,7.473-16.696,16.696V256c0,9.223,7.479,16.696,16.696,16.696
	H512V139.13z"/>
</svg>